<?xml version="1.0" encoding="UTF-8" standalone="no"?>
<!-- Created with Inkscape (http://www.inkscape.org/) -->

<svg
   xmlns:dc="http://purl.org/dc/elements/1.1/"
   xmlns:cc="http://creativecommons.org/ns#"
   xmlns:rdf="http://www.w3.org/1999/02/22-rdf-syntax-ns#"
   xmlns:svg="http://www.w3.org/2000/svg"
   xmlns="http://www.w3.org/2000/svg"
   xmlns:sodipodi="http://sodipodi.sourceforge.net/DTD/sodipodi-0.dtd"
   xmlns:inkscape="http://www.inkscape.org/namespaces/inkscape"
   width="200mm"
   height="200mm"
   viewBox="0 0 200 200"
   version="1.1"
   id="svg8169"
   inkscape:version="0.92.3 (2405546, 2018-03-11)"
   sodipodi:docname="fondo.svg">
  <defs
     id="defs8163" />
  <sodipodi:namedview
     id="base"
     pagecolor="#ffffff"
     bordercolor="#666666"
     borderopacity="1.0"
     inkscape:pageopacity="0.0"
     inkscape:pageshadow="2"
     inkscape:zoom="0.34065104"
     inkscape:cx="81.345139"
     inkscape:cy="444.17789"
     inkscape:document-units="mm"
     inkscape:current-layer="layer1"
     showgrid="false"
     units="mm"
     height="279mm"
     inkscape:snap-global="false"
     inkscape:window-width="1366"
     inkscape:window-height="703"
     inkscape:window-x="0"
     inkscape:window-y="40"
     inkscape:window-maximized="1" />
  <metadata
     id="metadata8166">
    <rdf:RDF>
      <cc:Work
         rdf:about="">
        <dc:format>image/svg+xml</dc:format>
        <dc:type
           rdf:resource="http://purl.org/dc/dcmitype/StillImage" />
        <dc:title></dc:title>
      </cc:Work>
    </rdf:RDF>
  </metadata>
  <g
     inkscape:label="Layer 1"
     inkscape:groupmode="layer"
     id="layer1"
     transform="translate(0,-97)">
    <g
       id="g8775"
       transform="matrix(0.09283319,-0.0454292,0.04542934,0.09283348,120.11741,124.82437)"
       style="stroke:none;stroke-opacity:0.75294119;fill:#4a0c08;fill-opacity:0.37128714;stroke-width:0;stroke-miterlimit:4;stroke-dasharray:none">
      <path
         id="path8765"
         d="m 424.615,44.077 c -3.804,-2.242 -8.402,-2.693 -12.57,-1.235 C 369.265,57.814 326.617,72.665 292.447,84.55 281.676,72.723 267.176,64.362 250.832,61.301 246.584,36.57 230.952,15.21 207.931,3.699 l -4.223,-2.111 c -7.406,-3.704 -16.418,-0.701 -20.124,6.708 -3.705,7.409 -0.702,16.42 6.708,20.124 l 4.223,2.111 c 12.925,6.463 22.11,17.906 25.75,31.376 C 188.576,69.16 164.487,96.529 162.2,129.815 113.329,146.799 61.453,164.85 10.045,182.843 4.028,184.948 0.001,190.627 0.001,197 H 0 v 160 h 0.013 c 0.001,6.205 3.864,12.01 10.054,14.165 l 402,140 c 1.604,0.56 3.271,0.835 4.933,0.835 1.793,0 3.578,-0.321 5.268,-0.955 0.406,-0.1 0.915,-0.213 1.514,-0.352 8.292,-1.917 30.318,-7.01 50.251,-23.396 C 499.226,466.588 512,436.207 512,397 V 197 C 512,192.858 511.007,94.986 424.615,44.077 Z M 237,90 c 24.813,0 45,20.187 45,45 0,24.813 -20.187,45 -45,45 -24.813,0 -45,-20.187 -45,-45 0,-24.813 20.187,-45 45,-45 z m -70.654,70.133 C 176.703,189.162 204.458,210 237,210 c 41.355,0 75,-33.645 75,-75 0,-8.43 -1.419,-16.53 -3.995,-24.099 C 339.318,100.008 377.019,86.878 415.182,73.527 481.22,116.806 482,196.181 482,197 c 0,69.574 -50.127,111.266 -67.09,123.376 l -82.955,-29.034 c -4.587,-1.605 -9.67,-0.89 -13.635,1.925 -3.965,2.812 -6.32,7.372 -6.32,12.233 V 367 c 0,8.271 -6.729,15 -15,15 -8.271,0 -15,-6.729 -15,-15 v -82.5 c 0,-6.388 -4.045,-12.075 -10.08,-14.17 L 60.597,196.953 c 35.859,-12.516 71.499,-24.915 105.749,-36.82 z M 252,343.414 30,266.33 V 218.086 L 252,295.17 Z M 30,298.087 252.807,375.451 C 256.774,396.237 275.075,412 297,412 c 11.17,0 21.395,-4.1 29.27,-10.862 L 402,427.643 v 48.25 L 30,346.341 Z m 372,97.771 -60.66,-21.23 c 0.426,-2.481 0.66,-5.027 0.66,-7.627 v -40.357 l 60,21 z M 482,397 c 0,41.032 -16.4,67.328 -50,79.975 V 345.059 c 11.016,-7.779 32.194,-24.785 50,-51.129 z"
         inkscape:connector-curvature="0"
         style="stroke:none;stroke-opacity:0.75294119;fill:#4a0c08;fill-opacity:0.37128714;stroke-width:0;stroke-miterlimit:4;stroke-dasharray:none" />
      <circle
         id="circle8767"
         r="15"
         cy="132"
         cx="412"
         style="stroke:none;stroke-opacity:0.75294119;fill:#4a0c08;fill-opacity:0.37128714;stroke-width:0;stroke-miterlimit:4;stroke-dasharray:none" />
      <circle
         id="circle8769"
         r="15"
         cy="202"
         cx="432"
         style="stroke:none;stroke-opacity:0.75294119;fill:#4a0c08;fill-opacity:0.37128714;stroke-width:0;stroke-miterlimit:4;stroke-dasharray:none" />
      <circle
         id="circle8771"
         r="15"
         cy="262"
         cx="382"
         style="stroke:none;stroke-opacity:0.75294119;fill:#4a0c08;fill-opacity:0.37128714;stroke-width:0;stroke-miterlimit:4;stroke-dasharray:none" />
      <circle
         id="circle8773"
         r="15"
         cy="192"
         cx="352"
         style="stroke:none;stroke-opacity:0.75294119;fill:#4a0c08;fill-opacity:0.37128714;stroke-width:0;stroke-miterlimit:4;stroke-dasharray:none" />
    </g>
    <g
       id="g8806"
       transform="matrix(0.10335538,0,0,0.10335512,136.91179,231.60104)"
       style="stroke:none;stroke-opacity:0.75294119;fill:#4a0c08;fill-opacity:0.37128714">
      <g
         id="g8804"
         style="stroke:none;stroke-opacity:0.75294119;fill:#4a0c08;fill-opacity:0.37128714">
        <path
           id="path8790"
           d="M 499.214,88.927 C 482.485,65.01 451.762,48.335 428.722,43.479 427.899,42.733 427.069,41.99 426.207,41.266 399.042,18.439 359.111,12.382 331.324,14.081 323.459,8.018 314.391,3.861 304.141,1.696 266.587,-6.241 222.489,15.034 193.94,37.101 188.202,34.849 181.958,34.083 175.157,34.792 137.081,38.763 104.822,53.73 79.276,79.275 53.73,104.822 38.763,137.081 34.793,175.156 c -0.709,6.802 0.056,13.045 2.307,18.783 -22.073,28.558 -43.328,72.626 -35.409,110.18 2.163,10.259 6.322,19.334 12.389,27.205 -1.699,27.765 4.382,67.812 27.252,94.963 0.702,0.834 1.423,1.635 2.146,2.433 4.858,23.047 21.566,53.815 45.497,70.528 12.062,8.424 25.151,12.74 38.383,12.74 3.696,0 7.403,-0.336 11.102,-1.015 11.938,-2.188 27.493,-11.002 33.798,-40.564 3.984,-18.677 2.828,-38.538 1.813,-48.544 7.534,-15.761 13.506,-43.542 15.509,-53.577 1.822,-1.296 3.566,-2.659 5.234,-4.123 11.576,-10.162 25.863,-33.178 29.948,-65.746 16.923,-2.933 32.582,-11.688 47.276,-26.381 14.7,-14.7 23.468,-30.366 26.4,-47.296 30.616,-3.918 54.755,-17.431 65.726,-29.928 1.461,-1.664 2.822,-3.404 4.115,-5.222 9.165,-1.827 37.579,-7.871 53.586,-15.521 4.665,0.473 11.465,0.977 19.286,0.977 8.966,0 19.274,-0.661 29.244,-2.787 29.572,-6.304 38.389,-21.861 40.577,-33.801 3.11,-16.961 -0.956,-34.088 -11.758,-49.533 z m -64.816,8.636 c 3.212,39.805 -8.587,51.627 -19.225,57.479 -7.897,4.343 -23.563,8.775 -36.77,11.905 1.57,-12.006 -0.475,-31.874 -6.123,-59.302 -5.709,-27.721 -13.717,-55.123 -19.475,-66.639 -1.211,-2.423 -2.504,-4.724 -3.856,-6.936 22.401,1.387 47.406,8.234 64.39,22.506 12.636,10.62 19.722,24.409 21.059,40.987 z M 34.076,348.954 c 2.21,1.351 4.51,2.643 6.931,3.854 11.516,5.758 38.918,13.766 66.639,19.475 21.475,4.422 38.319,6.638 50.383,6.638 3.339,0 6.294,-0.177 8.897,-0.517 -3.053,12.832 -7.5,28.802 -11.884,36.77 -5.852,10.638 -17.677,22.437 -57.48,19.227 C 81.011,433.066 67.24,426.002 56.629,413.404 42.338,396.435 35.472,371.375 34.076,348.954 Z m 100.777,142.347 c -11.732,2.149 -23.317,-0.692 -34.427,-8.451 -11.8,-8.241 -21.59,-21.042 -28.346,-33.999 7.39,2.955 15.353,4.796 23.873,5.483 4.615,0.372 9.578,0.645 14.711,0.645 14.817,0 31.039,-2.275 44.306,-10.972 -0.471,22.127 -5.635,44.64 -20.117,47.294 z M 257.895,257.896 c -20.283,20.283 -41.78,26.062 -67.654,18.184 -5.282,-1.61 -10.87,1.37 -12.479,6.653 -1.609,5.284 1.37,10.871 6.654,12.479 6.866,2.091 13.534,3.415 20.024,3.992 -3.704,23.724 -13.96,42.153 -22.82,49.93 -4.033,3.54 -8.765,6.394 -14.89,8.979 -3.786,1.6 -21.57,1.474 -55.051,-5.422 C 85.886,347.379 59.926,339.905 49.951,334.918 33.909,326.897 24.525,315.473 21.26,299.992 c -5.79,-27.458 9.182,-62.954 28.266,-89.287 2.551,2.187 5.428,4.276 8.64,6.27 14.009,8.699 28.23,19.016 41.983,28.993 l 3.711,2.691 c 4.472,3.241 10.724,2.242 13.965,-2.229 3.241,-4.473 2.242,-10.725 -2.23,-13.966 l -3.703,-2.685 C 97.853,219.593 83.336,209.062 68.715,199.983 55.928,192.045 53.858,185.146 54.683,177.23 c 3.482,-33.395 16.514,-61.594 38.733,-83.813 22.218,-22.219 50.417,-35.251 83.812,-38.733 7.915,-0.819 14.814,1.245 22.754,14.031 9.091,14.642 19.638,29.18 29.838,43.238 39.264,54.114 73.171,100.847 28.075,145.943 z m 41.319,-53.453 c -0.589,-6.639 -1.961,-13.464 -4.135,-20.496 -8.672,-28.061 -29.208,-56.365 -49.068,-83.737 -9.992,-13.772 -20.325,-28.014 -29.035,-42.042 -1.994,-3.212 -4.084,-6.089 -6.271,-8.64 26.334,-19.081 61.852,-34.062 89.303,-28.262 15.474,3.268 26.893,12.651 34.91,28.688 4.987,9.974 12.463,35.935 17.774,61.728 6.895,33.48 7.02,51.266 5.421,55.051 -2.586,6.126 -5.439,10.857 -8.979,14.889 -7.823,8.91 -26.215,19.124 -49.92,22.821 z m 192.087,-69.589 c -2.655,14.484 -25.167,19.645 -47.297,20.117 11.711,-17.863 11.777,-41.083 10.33,-59.017 -0.688,-8.522 -2.529,-16.486 -5.484,-23.877 12.941,6.746 25.727,16.522 33.974,28.314 7.778,11.12 10.63,22.715 8.477,34.463 z"
           inkscape:connector-curvature="0"
           style="stroke:none;stroke-opacity:0.75294119;fill:#4a0c08;fill-opacity:0.37128714" />
        <path
           id="path8792"
           d="m 290.85,51.406 h -0.007 c -5.522,0 -9.997,4.478 -9.997,10 0,5.522 4.481,10 10.004,10 5.523,0 10,-4.478 10,-10 0,-5.522 -4.477,-10 -10,-10 z"
           inkscape:connector-curvature="0"
           style="stroke:none;stroke-opacity:0.75294119;fill:#4a0c08;fill-opacity:0.37128714" />
        <path
           id="path8794"
           d="m 194.851,134.406 h -0.007 c -5.523,0 -9.997,4.478 -9.997,10 0,5.522 4.481,10 10.004,10 5.523,0 10,-4.478 10,-10 0,-5.522 -4.478,-10 -10,-10 z"
           inkscape:connector-curvature="0"
           style="stroke:none;stroke-opacity:0.75294119;fill:#4a0c08;fill-opacity:0.37128714" />
        <path
           id="path8796"
           d="m 120.851,122.406 h -0.007 c -5.523,0 -9.997,4.478 -9.997,10 0,5.522 4.481,10 10.004,10 5.523,0 10,-4.478 10,-10 0,-5.522 -4.478,-10 -10,-10 z"
           inkscape:connector-curvature="0"
           style="stroke:none;stroke-opacity:0.75294119;fill:#4a0c08;fill-opacity:0.37128714" />
        <path
           id="path8798"
           d="m 75.343,295.406 h -0.007 c -5.523,0 -9.997,4.478 -9.997,10 0,5.522 4.481,10 10.004,10 5.523,0 10,-4.478 10,-10 0,-5.522 -4.477,-10 -10,-10 z"
           inkscape:connector-curvature="0"
           style="stroke:none;stroke-opacity:0.75294119;fill:#4a0c08;fill-opacity:0.37128714" />
        <path
           id="path8800"
           d="m 102.851,412.406 c 5.523,0 10,-4.478 10,-10 0,-5.522 -4.477,-10 -10,-10 h -0.007 c -5.523,0 -9.997,4.478 -9.997,10 0,5.522 4.481,10 10.004,10 z"
           inkscape:connector-curvature="0"
           style="stroke:none;stroke-opacity:0.75294119;fill:#4a0c08;fill-opacity:0.37128714" />
        <path
           id="path8802"
           d="m 146.797,256.083 h -0.007 c -5.523,0 -9.996,4.478 -9.996,10 0,5.522 4.48,10 10.003,10 5.523,0 10,-4.478 10,-10 0,-5.522 -4.477,-10 -10,-10 z"
           inkscape:connector-curvature="0"
           style="stroke:none;stroke-opacity:0.75294119;fill:#4a0c08;fill-opacity:0.37128714" />
      </g>
    </g>
    <g
       id="g8975"
       transform="matrix(0.1107898,0.06250084,-0.06006981,0.10648053,26.017321,95.951095)"
       style="stroke:none;stroke-opacity:0.75294119;fill:#4a0c08;fill-opacity:0.37128714">
      <g
         id="g8828"
         style="stroke:none;stroke-opacity:0.75294119;fill:#4a0c08;fill-opacity:0.37128714">
	<g
   id="g8826"
   style="stroke:none;stroke-opacity:0.75294119;fill:#4a0c08;fill-opacity:0.37128714">
		<rect
   id="rect8824"
   height="16"
   width="16"
   y="208.005"
   x="112.002"
   style="stroke:none;stroke-opacity:0.75294119;fill:#4a0c08;fill-opacity:0.37128714" />

	</g>

</g>
      <g
         id="g8834"
         style="stroke:none;stroke-opacity:0.75294119;fill:#4a0c08;fill-opacity:0.37128714">
	<g
   id="g8832"
   style="stroke:none;stroke-opacity:0.75294119;fill:#4a0c08;fill-opacity:0.37128714">
		<rect
   id="rect8830"
   height="16"
   width="16"
   y="192.005"
   x="152.002"
   style="stroke:none;stroke-opacity:0.75294119;fill:#4a0c08;fill-opacity:0.37128714" />

	</g>

</g>
      <g
         id="g8840"
         style="stroke:none;stroke-opacity:0.75294119;fill:#4a0c08;fill-opacity:0.37128714">
	<g
   id="g8838"
   style="stroke:none;stroke-opacity:0.75294119;fill:#4a0c08;fill-opacity:0.37128714">
		<rect
   id="rect8836"
   height="16"
   width="16"
   y="208.005"
   x="200.002"
   style="stroke:none;stroke-opacity:0.75294119;fill:#4a0c08;fill-opacity:0.37128714" />

	</g>

</g>
      <g
         id="g8846"
         style="stroke:none;stroke-opacity:0.75294119;fill:#4a0c08;fill-opacity:0.37128714">
	<g
   id="g8844"
   style="stroke:none;stroke-opacity:0.75294119;fill:#4a0c08;fill-opacity:0.37128714">
		<rect
   id="rect8842"
   height="16"
   width="16"
   y="192.005"
   x="248.002"
   style="stroke:none;stroke-opacity:0.75294119;fill:#4a0c08;fill-opacity:0.37128714" />

	</g>

</g>
      <g
         id="g8852"
         style="stroke:none;stroke-opacity:0.75294119;fill:#4a0c08;fill-opacity:0.37128714">
	<g
   id="g8850"
   style="stroke:none;stroke-opacity:0.75294119;fill:#4a0c08;fill-opacity:0.37128714">
		<rect
   id="rect8848"
   height="16"
   width="16"
   y="192.005"
   x="304.00201"
   style="stroke:none;stroke-opacity:0.75294119;fill:#4a0c08;fill-opacity:0.37128714" />

	</g>

</g>
      <g
         id="g8858"
         style="stroke:none;stroke-opacity:0.75294119;fill:#4a0c08;fill-opacity:0.37128714">
	<g
   id="g8856"
   style="stroke:none;stroke-opacity:0.75294119;fill:#4a0c08;fill-opacity:0.37128714">
		<rect
   id="rect8854"
   height="16"
   width="16"
   y="208.005"
   x="344.00201"
   style="stroke:none;stroke-opacity:0.75294119;fill:#4a0c08;fill-opacity:0.37128714" />

	</g>

</g>
      <g
         id="g8864"
         style="stroke:none;stroke-opacity:0.75294119;fill:#4a0c08;fill-opacity:0.37128714">
	<g
   id="g8862"
   style="stroke:none;stroke-opacity:0.75294119;fill:#4a0c08;fill-opacity:0.37128714">
		<rect
   id="rect8860"
   height="16"
   width="16"
   y="48.005001"
   x="248.002"
   style="stroke:none;stroke-opacity:0.75294119;fill:#4a0c08;fill-opacity:0.37128714" />

	</g>

</g>
      <g
         id="g8870"
         style="stroke:none;stroke-opacity:0.75294119;fill:#4a0c08;fill-opacity:0.37128714">
	<g
   id="g8868"
   style="stroke:none;stroke-opacity:0.75294119;fill:#4a0c08;fill-opacity:0.37128714">
		<rect
   id="rect8866"
   height="16"
   width="16"
   y="112.005"
   x="184.002"
   style="stroke:none;stroke-opacity:0.75294119;fill:#4a0c08;fill-opacity:0.37128714" />

	</g>

</g>
      <g
         id="g8876"
         style="stroke:none;stroke-opacity:0.75294119;fill:#4a0c08;fill-opacity:0.37128714">
	<g
   id="g8874"
   style="stroke:none;stroke-opacity:0.75294119;fill:#4a0c08;fill-opacity:0.37128714">
		<rect
   id="rect8872"
   height="16"
   width="16"
   y="128.005"
   x="224.002"
   style="stroke:none;stroke-opacity:0.75294119;fill:#4a0c08;fill-opacity:0.37128714" />

	</g>

</g>
      <g
         id="g8882"
         style="stroke:none;stroke-opacity:0.75294119;fill:#4a0c08;fill-opacity:0.37128714">
	<g
   id="g8880"
   style="stroke:none;stroke-opacity:0.75294119;fill:#4a0c08;fill-opacity:0.37128714">
		<rect
   id="rect8878"
   height="16"
   width="16"
   y="112.005"
   x="296.00201"
   style="stroke:none;stroke-opacity:0.75294119;fill:#4a0c08;fill-opacity:0.37128714" />

	</g>

</g>
      <g
         id="g8888"
         style="stroke:none;stroke-opacity:0.75294119;fill:#4a0c08;fill-opacity:0.37128714">
	<g
   id="g8886"
   style="stroke:none;stroke-opacity:0.75294119;fill:#4a0c08;fill-opacity:0.37128714">
		<path
   id="path8884"
   d="m 403.514,240.181 c 17.819,-19.562 16.406,-49.865 -3.156,-67.684 -8.847,-8.059 -20.389,-12.515 -32.356,-12.492 h -20.32 c 17.717,-19.66 16.142,-49.96 -3.518,-67.678 -8.823,-7.951 -20.285,-12.343 -32.162,-12.322 h -0.552 c -4.056,-31.967 -31.225,-55.946 -63.448,-56 h -10.968 c -5.987,0.189 -11.305,-3.799 -12.8,-9.6 -0.316,-1.584 -0.316,-3.216 0,-4.8 0.413,-2.382 -0.262,-4.824 -1.84,-6.656 -1.6,-1.866 -3.934,-2.941 -6.392,-2.944 -20.547,-0.286 -38.924,12.736 -45.464,32.216 -5.044,14.874 -2.575,31.27 6.624,44 0.974,1.319 2.015,2.588 3.12,3.8 h -12.28 c -26.465,-0.045 -47.957,21.372 -48.002,47.838 -0.02,11.877 4.371,23.339 12.322,32.162 h -20.32 c -26.461,-0.051 -47.953,21.359 -48.004,47.82 -0.023,11.967 4.433,23.509 12.492,32.356 -25.055,1.838 -44.455,22.685 -44.488,47.808 -0.004,15.757 7.821,30.487 20.88,39.304 l 51.568,147.336 c 1.122,3.21 4.151,5.36 7.552,5.36 h 256 c 3.401,0 6.43,-2.15 7.552,-5.36 l 51.568,-147.336 c 13.059,-8.817 20.884,-23.547 20.88,-39.304 -0.024,-25.129 -19.426,-45.986 -44.488,-47.824 z M 185.762,37.205 c 3.544,-10.216 12.126,-17.868 22.68,-20.224 0,0.16 0.056,0.32 0.08,0.48 2.918,13.348 14.85,22.783 28.512,22.544 h 10.968 c 23.413,0.029 43.401,16.92 47.336,40 h -79.336 c -10.245,-0.021 -19.866,-4.923 -25.904,-13.2 -6.141,-8.587 -7.756,-19.613 -4.336,-29.6 z m -17.76,58.8 h 144 c 17.673,0 32,14.327 32,32 0,17.673 -14.327,32 -32,32 h -144 c -17.673,0 -32,-14.327 -32,-32 0,-17.673 14.327,-32 32,-32 z m -56,80 h 256 c 17.673,0 32,14.327 32,32 0,17.673 -14.327,32 -32,32 h -256 c -17.673,0 -32,-14.327 -32,-32 0,-17.673 14.327,-32 32,-32 z m 5.68,288 L 65.09,313.741 c 4.526,-4.432 10.481,-7.109 16.8,-7.552 7.723,-0.508 15.293,2.314 20.8,7.752 l 1.856,1.856 22.168,148.208 z m 25.216,0 -22.4,-149.2 4.616,-4.616 c 10.432,-10.401 27.312,-10.401 37.744,0 l 5.304,5.288 7.424,148.528 z m 89.104,0 h -40.384 l -7.448,-148.856 4.96,-4.96 c 10.432,-10.401 27.312,-10.401 37.744,0 l 5.128,5.128 z m 56.384,0 H 248.002 V 315.317 l 5.128,-5.128 c 10.432,-10.401 27.312,-10.401 37.744,0 l 4.96,4.96 z m 16.032,0 7.424,-148.528 5.288,-5.288 c 10.432,-10.401 27.312,-10.401 37.744,0 l 4.616,4.616 -22.384,149.2 z m 57.904,0 h -9.032 l 22.232,-148.208 1.856,-1.856 c 10.34,-10.35 27.087,-10.439 37.536,-0.2 z m 65.376,-160.056 -0.096,-0.088 c -1.654,-1.768 -3.456,-3.392 -5.384,-4.856 -0.304,-0.232 -0.6,-0.472 -0.904,-0.696 -1.885,-1.363 -3.878,-2.57 -5.96,-3.608 -0.376,-0.192 -0.752,-0.368 -1.144,-0.552 -2.124,-0.981 -4.327,-1.784 -6.584,-2.4 -0.32,-0.096 -0.648,-0.152 -0.976,-0.232 -2.418,-0.628 -4.886,-1.043 -7.376,-1.24 -1.016,-0.072 -2.024,-0.104 -3.032,-0.104 -1.008,0 -1.928,0.192 -2.896,0.256 -1.264,0.088 -2.52,0.152 -3.768,0.344 -1.4,0.224 -2.752,0.592 -4.12,0.952 -1.224,0.32 -2.448,0.584 -3.64,1.008 -1.495,0.58 -2.956,1.245 -4.376,1.992 -0.944,0.464 -1.92,0.8 -2.824,1.36 -2.328,1.36 -4.522,2.938 -6.552,4.712 l -1.88,-1.88 c -16.683,-16.639 -43.685,-16.639 -60.368,0 l -1.816,1.776 -1.816,-1.816 c -16.683,-16.639 -43.685,-16.639 -60.368,0 l -1.816,1.816 -1.816,-1.816 c -16.683,-16.639 -43.685,-16.639 -60.368,0 l -1.816,1.816 -1.816,-1.816 c -16.683,-16.639 -43.685,-16.639 -60.368,0 l -1.88,1.88 c -10.5,-9.352 -24.98,-12.835 -38.584,-9.28 -0.328,0.08 -0.656,0.136 -0.976,0.232 -2.257,0.616 -4.46,1.419 -6.584,2.4 -0.392,0.184 -0.8,0.36 -1.144,0.552 -2.082,1.038 -4.075,2.245 -5.96,3.608 -0.304,0.224 -0.6,0.464 -0.904,0.696 -1.928,1.464 -3.729,3.088 -5.384,4.856 l -0.096,0.088 c -2.825,-4.824 -4.311,-10.314 -4.304,-15.904 0,-17.673 14.327,-32 32,-32 h 320 c 17.673,0 32,14.327 32,32 0.014,5.603 -1.472,11.108 -4.304,15.944 z"
   inkscape:connector-curvature="0"
   style="stroke:none;stroke-opacity:0.75294119;fill:#4a0c08;fill-opacity:0.37128714" />

	</g>

</g>
      <g
         id="g8890"
         style="stroke:none;stroke-opacity:0.75294119;fill:#4a0c08;fill-opacity:0.37128714">
</g>
      <g
         id="g8892"
         style="stroke:none;stroke-opacity:0.75294119;fill:#4a0c08;fill-opacity:0.37128714">
</g>
      <g
         id="g8894"
         style="stroke:none;stroke-opacity:0.75294119;fill:#4a0c08;fill-opacity:0.37128714">
</g>
      <g
         id="g8896"
         style="stroke:none;stroke-opacity:0.75294119;fill:#4a0c08;fill-opacity:0.37128714">
</g>
      <g
         id="g8898"
         style="stroke:none;stroke-opacity:0.75294119;fill:#4a0c08;fill-opacity:0.37128714">
</g>
      <g
         id="g8900"
         style="stroke:none;stroke-opacity:0.75294119;fill:#4a0c08;fill-opacity:0.37128714">
</g>
      <g
         id="g8902"
         style="stroke:none;stroke-opacity:0.75294119;fill:#4a0c08;fill-opacity:0.37128714">
</g>
      <g
         id="g8904"
         style="stroke:none;stroke-opacity:0.75294119;fill:#4a0c08;fill-opacity:0.37128714">
</g>
      <g
         id="g8906"
         style="stroke:none;stroke-opacity:0.75294119;fill:#4a0c08;fill-opacity:0.37128714">
</g>
      <g
         id="g8908"
         style="stroke:none;stroke-opacity:0.75294119;fill:#4a0c08;fill-opacity:0.37128714">
</g>
      <g
         id="g8910"
         style="stroke:none;stroke-opacity:0.75294119;fill:#4a0c08;fill-opacity:0.37128714">
</g>
      <g
         id="g8912"
         style="stroke:none;stroke-opacity:0.75294119;fill:#4a0c08;fill-opacity:0.37128714">
</g>
      <g
         id="g8914"
         style="stroke:none;stroke-opacity:0.75294119;fill:#4a0c08;fill-opacity:0.37128714">
</g>
      <g
         id="g8916"
         style="stroke:none;stroke-opacity:0.75294119;fill:#4a0c08;fill-opacity:0.37128714">
</g>
      <g
         id="g8918"
         style="stroke:none;stroke-opacity:0.75294119;fill:#4a0c08;fill-opacity:0.37128714">
</g>
    </g>
    <g
       id="g8985"
       transform="matrix(0.12531722,-0.02122031,0.01726357,0.10195055,66.380713,180.30572)"
       style="stroke:none;stroke-opacity:0.75294119;fill:#4a0c08;fill-opacity:0.37128714">
      <path
         id="path8977"
         d="m 159.283,0 c -4.143,0 -7.5,3.358 -7.5,7.5 V 112.503 H 131.958 V 7.5 c 0,-4.142 -3.357,-7.5 -7.5,-7.5 -4.143,0 -7.5,3.358 -7.5,7.5 V 112.503 H 97.575 V 7.5 c 0,-4.142 -3.357,-7.5 -7.5,-7.5 -4.143,0 -7.5,3.358 -7.5,7.5 V 112.503 H 62.711 V 7.5 c 0,-4.142 -3.357,-7.5 -7.5,-7.5 -4.143,0 -7.5,3.358 -7.5,7.5 v 154.408 c 0,15.952 8.596,30.792 22.432,38.729 l 12.432,7.132 v 45.998 c -5.009,5.856 -7.828,13.395 -7.828,21.151 v 7.679 c 0,4.653 1.612,8.936 4.305,12.321 -2.694,3.385 -4.305,7.668 -4.305,12.321 v 117.326 c 0,4.142 3.357,7.5 7.5,7.5 4.143,0 7.5,-3.358 7.5,-7.5 V 307.238 c 0,-2.658 2.163,-4.821 4.821,-4.821 h 25.358 c 2.658,0 4.82,2.163 4.82,4.821 v 172.018 c 0,9.649 -7.851,17.5 -17.5,17.5 -9.649,0 -17.5,-7.851 -17.5,-17.5 v -19.771 c 0,-4.142 -3.357,-7.5 -7.5,-7.5 -4.143,0 -7.5,3.358 -7.5,7.5 v 19.771 c 0,17.92 14.579,32.5 32.5,32.5 17.921,0 32.5,-14.58 32.5,-32.5 V 307.238 c 0,-4.653 -1.612,-8.936 -4.305,-12.321 2.694,-3.385 4.305,-7.668 4.305,-12.321 v -7.679 c 0,-7.734 -2.806,-15.257 -7.789,-21.106 v -46.045 l 12.412,-7.128 c 13.824,-7.94 22.412,-22.776 22.412,-38.718 L 166.783,7.5 c 0,-4.142 -3.358,-7.5 -7.5,-7.5 z m -7.501,161.92 c 0,10.586 -5.703,20.438 -14.883,25.71 l -16.177,9.291 c -2.329,1.338 -3.765,3.818 -3.765,6.504 v 53.359 c 0,2.057 0.845,4.023 2.336,5.439 3.517,3.339 5.453,7.847 5.453,12.694 v 7.679 c 0,2.658 -2.162,4.821 -4.82,4.821 H 94.568 c -2.658,0 -4.821,-2.163 -4.821,-4.821 v -7.679 c 0,-4.86 1.946,-9.377 5.48,-12.719 1.499,-1.417 2.348,-3.388 2.348,-5.45 v -53.323 c 0,-2.687 -1.438,-5.168 -3.768,-6.505 l -16.2,-9.294 c -9.188,-5.27 -14.896,-15.125 -14.896,-25.717 v -34.405 h 89.07 v 34.416 z"
         inkscape:connector-curvature="0"
         style="stroke:none;stroke-opacity:0.75294119;fill:#4a0c08;fill-opacity:0.37128714" />
      <path
         id="path8979"
         d="m 302.75,125.741 c 0,15.26 -3.349,27.141 -9.429,33.454 -5.8,6.022 -14.661,7.287 -21.073,7.287 -6.412,0 -15.273,-1.264 -21.073,-7.288 -6.079,-6.312 -9.428,-18.192 -9.428,-33.453 0,-4.142 -3.357,-7.5 -7.5,-7.5 -4.143,0 -7.5,3.358 -7.5,7.5 0,19.439 4.711,34.605 13.624,43.858 9.456,9.821 22.555,11.882 31.877,11.882 9.322,0 22.42,-2.062 31.878,-11.881 8.913,-9.255 13.624,-24.421 13.624,-43.859 0,-4.142 -3.357,-7.5 -7.5,-7.5 -4.143,0 -7.5,3.358 -7.5,7.5 z"
         inkscape:connector-curvature="0"
         style="stroke:none;stroke-opacity:0.75294119;fill:#4a0c08;fill-opacity:0.37128714" />
      <path
         id="path8981"
         d="m 272.249,0 c -20.384,0 -39.804,15.168 -54.684,42.709 -13.036,24.13 -20.818,55.17 -20.818,83.032 0,42.681 18.429,72.276 50.829,82.195 v 45.831 c -5.008,5.856 -7.827,13.395 -7.827,21.15 v 7.679 c 0,4.652 1.611,8.935 4.305,12.32 -2.694,3.385 -4.306,7.668 -4.306,12.321 v 172.018 c 0,17.92 14.58,32.5 32.501,32.5 17.92,0 32.499,-14.58 32.499,-32.5 V 368.143 c 0,-4.142 -3.357,-7.5 -7.5,-7.5 -4.143,0 -7.5,3.358 -7.5,7.5 v 111.113 c 0,9.649 -7.851,17.5 -17.5,17.5 -9.649,0 -17.5,-7.851 -17.5,-17.5 V 307.238 c 0,-2.658 2.163,-4.821 4.821,-4.821 h 25.358 c 2.658,0 4.82,2.163 4.82,4.821 v 26.324 c 0,4.142 3.357,7.5 7.5,7.5 4.143,0 7.5,-3.358 7.5,-7.5 v -26.324 c 0,-4.652 -1.611,-8.935 -4.305,-12.32 2.694,-3.385 4.306,-7.668 4.306,-12.321 v -7.679 c 0,-7.734 -2.806,-15.256 -7.79,-21.106 v -45.887 c 32.375,-9.93 50.79,-39.521 50.79,-82.183 C 347.748,97.88 339.966,66.84 326.93,42.71 312.051,15.168 292.632,0 272.249,0 Z m 15.576,194.834 c -3.429,0.766 -5.866,3.808 -5.866,7.32 v 54.631 c 0,2.057 0.845,4.023 2.336,5.439 3.518,3.339 5.454,7.847 5.454,12.694 v 7.679 c 0,2.658 -2.163,4.821 -4.821,4.821 H 259.57 c -2.658,0 -4.82,-2.163 -4.82,-4.821 v -7.679 c 0,-4.86 1.946,-9.377 5.48,-12.72 1.498,-1.417 2.347,-3.388 2.347,-5.449 v -54.586 c 0,-3.514 -2.439,-6.557 -5.869,-7.321 -28.993,-6.457 -44.96,-30.997 -44.96,-69.1 0,-25.488 7.108,-53.862 19.016,-75.902 C 242.724,27.698 257.845,15 272.249,15 c 14.404,0 29.523,12.698 41.484,34.839 11.907,22.04 19.016,50.415 19.016,75.902 0,38.087 -15.955,62.625 -44.924,69.093 z"
         inkscape:connector-curvature="0"
         style="stroke:none;stroke-opacity:0.75294119;fill:#4a0c08;fill-opacity:0.37128714" />
      <path
         id="path8983"
         d="m 464.044,314.917 c 0,-7.735 -2.806,-15.257 -7.79,-21.106 V 107.493 c 0,-4.142 -3.357,-7.5 -7.5,-7.5 -4.143,0 -7.5,3.358 -7.5,7.5 v 189.291 c 0,2.057 0.845,4.023 2.337,5.439 3.517,3.338 5.453,7.846 5.453,12.693 v 7.679 c 0,2.658 -2.162,4.821 -4.82,4.821 h -25.358 c -2.658,0 -4.821,-2.163 -4.821,-4.821 v -7.679 c 0,-4.86 1.946,-9.377 5.48,-12.719 1.499,-1.417 2.348,-3.388 2.348,-5.45 v -35.332 c 0,-4.142 -3.357,-7.5 -7.5,-7.5 H 396.821 V 77.77 c 0,-28.205 18.224,-52.496 44.434,-60.771 v 56.237 c 0,4.142 3.357,7.5 7.5,7.5 4.143,0 7.5,-3.358 7.5,-7.5 V 7.5 c 0,-2.207 -0.972,-4.301 -2.656,-5.727 -1.686,-1.425 -3.914,-2.036 -6.088,-1.669 -38.063,6.404 -65.689,39.067 -65.689,77.666 v 183.647 c 0,4.142 3.357,7.5 7.5,7.5 h 17.552 v 24.85 c -5.009,5.856 -7.828,13.395 -7.828,21.151 v 7.679 c 0,4.653 1.612,8.936 4.305,12.321 -2.694,3.385 -4.305,7.668 -4.305,12.321 v 132.018 c 0,17.92 14.579,32.5 32.5,32.5 17.921,0 32.5,-14.58 32.5,-32.5 V 347.238 c 0,-4.653 -1.612,-8.936 -4.305,-12.321 2.694,-3.385 4.305,-7.668 4.305,-12.321 v -7.679 z m -15,164.339 c 0,9.649 -7.851,17.5 -17.5,17.5 -9.649,0 -17.5,-7.851 -17.5,-17.5 V 347.238 c 0,-2.658 2.162,-4.821 4.82,-4.821 h 25.359 c 2.658,0 4.82,2.163 4.82,4.821 v 132.018 z"
         inkscape:connector-curvature="0"
         style="stroke:none;stroke-opacity:0.75294119;fill:#4a0c08;fill-opacity:0.37128714" />
    </g>
    <g
       id="g9001"
       transform="matrix(0.13317708,0.01702449,-0.01745371,0.13653472,27.310518,216.54869)"
       style="stroke:none;stroke-opacity:0.75294119;fill:#4a0c08;fill-opacity:0.37128714">
      <path
         id="path8999"
         d="m 481.854,290.398 c -3.161,-2.681 -7.892,-2.29 -10.571,0.868 -2.679,3.159 -2.291,7.893 0.869,10.571 16.233,13.768 24.826,29.177 24.848,44.562 0.015,10.328 -3.688,19.059 -11.321,26.691 -12.763,12.764 -36.512,22.271 -70.587,28.26 -30.589,5.375 -68.898,7.984 -117.152,7.888 -74.499,-0.101 -127.053,-6.548 -159.935,-19.656 12.666,-9.012 26.217,-19.829 40.749,-32.523 4.399,5.263 10.706,8.741 17.776,9.455 14.684,1.483 27.898,-9.388 29.315,-24.158 0.947,-9.877 0.968,-19.823 0.075,-29.623 13.165,-13.134 25.04,-25.532 35.714,-37.292 6.012,10.29 10.152,21.135 12.322,32.354 1.853,9.561 2.31,19.459 1.357,29.421 -1.408,14.76 9.373,27.974 24.091,29.461 14.648,1.48 27.757,-9.308 29.19,-24.179 1.456,-15.099 0.752,-30.21 -2.092,-44.915 -3,-15.488 -8.397,-30.441 -16.066,-44.617 14.402,0.45 28.489,1.621 42.087,3.485 12.521,15.866 20.243,33.143 22.938,51.398 1.422,9.635 1.434,19.541 0.033,29.444 -2.075,14.683 8.104,28.369 22.698,30.511 14.48,2.125 28.211,-8.03 30.301,-22.815 2.127,-15.05 2.1,-30.176 -0.082,-44.957 -1.313,-8.892 -3.425,-17.69 -6.303,-26.304 7.46,2.864 14.571,5.999 21.265,9.405 3.635,1.85 8.183,0.455 10.085,-3.283 1.879,-3.691 0.409,-8.207 -3.283,-10.086 -41.217,-20.976 -98.196,-32.537 -156.761,-31.991 4.036,-5.23 7.795,-10.327 11.28,-15.298 21.967,-31.336 32.646,-57.016 32.646,-78.506 0,-14.776 -5.14,-27.395 -15.276,-37.503 C 300.856,85.315 264.951,81.982 220.966,97.079 178.777,111.559 133.575,141.441 93.688,181.219 35.9,238.851 0,306.522 0,357.824 c 0,21.275 6.477,38.98 18.732,51.201 10.165,10.137 22.665,15.204 37.403,15.203 15.602,0 33.712,-5.678 54.213,-17.031 4.202,-2.327 8.517,-4.899 12.944,-7.704 34.203,16.529 91.414,24.633 174.627,24.745 47.564,0.064 89.006,-2.708 119.769,-8.114 37.693,-6.624 63.402,-17.231 78.597,-32.427 10.448,-10.448 15.735,-23.004 15.714,-37.319 -0.028,-19.921 -10.452,-39.278 -30.145,-55.98 z M 403.65,267.414 c 4.824,11.251 8.172,22.941 9.924,34.808 1.972,13.358 1.995,27.041 0.068,40.667 -0.922,6.522 -6.852,11.015 -13.278,10.072 -6.447,-0.945 -10.94,-7.033 -10.017,-13.568 1.602,-11.327 1.586,-22.677 -0.047,-33.735 -2.369,-16.049 -8.09,-31.372 -17.032,-45.754 10.533,2.074 20.692,4.581 30.382,7.51 z m -192.736,73.51 c -0.585,6.121 -5.589,10.733 -11.651,10.733 -3.712,0 -7.078,-1.702 -9.302,-4.584 6.981,-6.338 14.18,-13.088 21.606,-20.255 0.009,4.7 -0.202,9.411 -0.653,14.106 z m 100.862,-40.492 c 2.57,13.291 3.206,26.959 1.888,40.632 -0.63,6.54 -6.354,11.335 -12.81,10.683 -6.477,-0.654 -11.235,-6.534 -10.608,-13.104 1.089,-11.392 0.563,-22.729 -1.562,-33.699 -2.79,-14.423 -8.38,-28.262 -16.628,-41.222 3.143,-3.611 6.172,-7.163 9.079,-10.653 3.929,-0.149 7.894,-0.258 11.88,-0.297 9.224,14.978 15.533,30.993 18.761,47.66 z M 189.648,127.258 c 11.358,4.544 21.982,10.439 31.602,17.584 10.839,8.052 20.53,17.71 28.804,28.708 3.698,4.916 3.111,11.695 -1.365,15.769 -5.142,4.679 -13.363,3.835 -17.579,-1.77 -6.877,-9.142 -14.914,-17.156 -23.887,-23.82 -13.017,-9.668 -27.889,-16.457 -44.37,-20.304 8.913,-5.977 17.87,-11.383 26.795,-16.167 z M 42.49,271.825 c 11.707,4.045 22.705,9.508 32.757,16.296 11.189,7.558 21.305,16.773 30.066,27.391 3.918,4.749 3.641,11.555 -0.648,15.831 -4.917,4.903 -13.162,4.427 -17.623,-0.979 -7.282,-8.825 -15.671,-16.473 -24.934,-22.729 -9.27,-6.261 -19.51,-11.132 -30.507,-14.582 3.209,-7 6.845,-14.093 10.889,-21.228 z m 60.592,122.25 C 69.293,412.787 45.167,414.204 29.324,398.404 19.819,388.925 15,375.272 15,357.824 15,342.5 18.789,325.19 25.763,306.948 c 10.128,3.036 19.513,7.421 27.949,13.118 8.071,5.451 15.392,12.128 21.759,19.845 10.057,12.189 28.654,13.152 39.786,2.052 9.798,-9.77 10.497,-25.246 1.625,-35.998 -9.676,-11.726 -20.859,-21.911 -33.24,-30.273 -10.282,-6.944 -21.453,-12.617 -33.289,-16.97 6.147,-9.734 12.995,-19.48 20.487,-29.104 15.321,0.864 36.291,4.83 55.63,17.892 8.072,5.45 15.392,12.127 21.758,19.843 9.454,11.458 26.427,13.143 37.824,3.826 11.48,-9.384 13.015,-26.348 3.588,-37.771 -5.958,-7.221 -12.555,-13.923 -19.607,-19.92 -3.154,-2.682 -7.889,-2.301 -10.572,0.855 -2.684,3.155 -2.301,7.889 0.855,10.572 6.382,5.427 12.355,11.496 17.753,18.039 4.191,5.08 3.514,12.501 -1.513,16.611 -5.041,4.122 -12.559,3.332 -16.759,-1.76 -7.282,-8.825 -15.67,-16.472 -24.933,-22.727 -15.192,-10.261 -33.162,-16.864 -52.61,-19.438 5.949,-6.959 12.219,-13.812 18.786,-20.51 11.12,2.646 21.744,6.484 31.626,11.45 3.641,1.83 8.186,0.413 10.069,-3.333 1.86,-3.701 0.368,-8.209 -3.333,-10.069 -8.224,-4.133 -16.907,-7.543 -25.921,-10.23 10.497,-9.857 21.298,-18.994 32.252,-27.301 20.066,2.368 37.735,9.124 52.545,20.123 7.819,5.808 14.832,12.805 20.845,20.797 9.501,12.629 28.064,14.4 39.66,3.847 10.237,-9.316 11.637,-24.741 3.257,-35.881 -9.138,-12.147 -19.853,-22.823 -31.847,-31.732 -7.215,-5.358 -14.929,-10.085 -23.054,-14.141 6.287,-2.803 12.53,-5.275 18.699,-7.393 16.632,-5.709 31.774,-8.547 44.976,-8.547 17.186,0 31.08,4.812 40.661,14.367 7.313,7.293 10.868,16.086 10.868,26.882 0,18.05 -10.069,41.566 -29.929,69.896 -9.926,14.159 -22.393,30.697 -35.218,44.044 -44.688,46.505 -98.817,105.542 -154.114,136.166 z"
         inkscape:connector-curvature="0"
         style="stroke:none;stroke-opacity:0.75294119;fill:#4a0c08;fill-opacity:0.37128714" />
    </g>
  </g>
</svg>
